<?xml version="1.0" encoding="utf-8"?>
<!-- Generator: Adobe Illustrator 20.1.0, SVG Export Plug-In . SVG Version: 6.00 Build 0)  -->
<!DOCTYPE svg PUBLIC "-//W3C//DTD SVG 1.1//EN" "http://www.w3.org/Graphics/SVG/1.1/DTD/svg11.dtd">
<svg version="1.1" id="Layer_1" xmlns="http://www.w3.org/2000/svg" xmlns:xlink="http://www.w3.org/1999/xlink" x="0px" y="0px"
	 viewBox="0 0 146.9 136.6" style="enable-background:new 0 0 146.9 136.6;" xml:space="preserve">
<style type="text/css">
	.st0{fill:#1E1E1E;}
	.st1{fill:#FFFFFF;}
</style>
<path class="st0" d="M2.5,74.8h67.2v44.6c-3,1.2-5.8,4.5-5.8,8.4c0,4.9,4.1,8.9,9,8.9c4.9,0,8.9-4,8.9-8.9c0-3.9-2.1-7.2-6.1-8.4
	V74.8h67.7c1.7,0,3.3-0.7,3.3-2.3V3.2c0-1.7-1.6-3.4-3.3-3.4H2.5c-1.6,0-2.8,1.7-2.8,3.4v69.3C-0.3,74.1,0.9,74.8,2.5,74.8z
	 M107.5,7C124.9,7,139,21.2,139,38.6c0,17.4-14.1,31.5-31.5,31.5C90,70.1,75.9,56,75.9,38.6C75.9,21.2,90,7,107.5,7z M35.4,14.3
	c13.5,0,24.5,11,24.5,24.5c0,13.5-11,24.5-24.5,24.5c-13.5,0-24.5-11-24.5-24.5C10.9,25.2,21.9,14.3,35.4,14.3z"/>
<path class="st0" d="M75.9,38.6C75.9,21.2,90,7,107.5,7C124.9,7,139,21.2,139,38.6c0,17.4-14.1,31.5-31.5,31.5
	C90,70.1,75.9,56,75.9,38.6z"/>
<path class="st0" d="M10.9,38.7c0-13.5,11-24.5,24.5-24.5c13.5,0,24.5,11,24.5,24.5c0,13.5-11,24.5-24.5,24.5
	C21.9,63.2,10.9,52.3,10.9,38.7z"/>
<path class="st1" d="M10.9,38.7c0-13.5,11-24.5,24.5-24.5c13.5,0,24.5,11,24.5,24.5c0,13.5-11,24.5-24.5,24.5
	C21.9,63.2,10.9,52.3,10.9,38.7z"/>
<path class="st1" d="M75.9,38.6C75.9,21.2,90,7,107.5,7C124.9,7,139,21.2,139,38.6c0,17.4-14.1,31.5-31.5,31.5
	C90,70.1,75.9,56,75.9,38.6z"/>
<g>
</g>
<g>
</g>
<g>
</g>
<g>
</g>
<g>
</g>
<g>
</g>
<g>
</g>
<g>
</g>
<g>
</g>
<g>
</g>
<g>
</g>
<g>
</g>
<g>
</g>
<g>
</g>
<g>
</g>
</svg>
