<svg xmlns="http://www.w3.org/2000/svg" viewBox="0 0 165.8 332.5">
  <style>
    .st0{fill:#FF8C00;} .st1{fill:#D90000;} .st2{fill:#F8580C;} .st3{fill:#FFF4D6;} .st4{fill:#FF2D00;} .st5{fill:#FFB501;}
  </style>
  <g id="r-arm">
    <path d="M154 274.5h-5.5c-1.7 0-3-1.3-3-3v-89c0-1.7 1.3-3 3-3h5.5c1.7 0 3 1.3 3 3v89c0 1.6-1.4 3-3 3z" class="st0"/>
    <circle cx="150.2" cy="170.7" r="12.6" class="st1"/>
  </g>
  <g id="l-arm">
    <path d="M17 274.5h-5.5c-1.7 0-3-1.3-3-3v-89c0-1.7 1.3-3 3-3H17c1.7 0 3 1.3 3 3v89c0 1.6-1.4 3-3 3z" class="st0"/>
    <circle cx="15.7" cy="170.7" r="12.6" class="st1"/>
  </g>
  <g id="r-leg">
    <path d="M116.7 248.1v52.8m0 4.7c-2.6 0-4.7-2.1-4.7-4.7v-52.8c0-2.6 2.1-4.7 4.7-4.7s4.7 2.1 4.7 4.7v52.8c0 2.6-2.1 4.7-4.7 4.7z" class="st0"/>
    <path d="M105.9 326.3h39.9c1.7 0 3-1.3 3-3v-19.5c0-1.7-1.3-3-3-3h-39.9c-1.7 0-3 1.3-3 3v19.5c0 1.7 1.4 3 3 3z" class="st1"/>
  </g>
  <g id="l-leg">
    <path d="M47.8 247.7v52.8m0 4.7c-2.6 0-4.7-2.1-4.7-4.7v-52.8c0-2.6 2.1-4.7 4.7-4.7s4.7 2.1 4.7 4.7v52.8c0 2.6-2.1 4.7-4.7 4.7z" class="st0"/>
    <path d="M17.2 326h39.9c1.7 0 3-1.3 3-3v-19.5c0-1.7-1.3-3-3-3H17.2c-1.7 0-3 1.3-3 3V323c0 1.6 1.4 3 3 3z" class="st1"/>
  </g>
  <g id="body">
    <path d="M137.7 258.4H28.4c-1.7 0-3-1.3-3-3V152.2c0-1.7 1.3-3 3-3h109.3c1.7 0 3 1.3 3 3v103.1c0 1.7-1.3 3.1-3 3.1z" class="st2"/>
    <path d="M122.8 244.6h-46c-1.7 0-3-1.3-3-3v-71c0-1.7 1.3-3 3-3h46c1.7 0 3 1.3 3 3v71c0 1.6-1.3 3-3 3z" class="st0"/>
  </g>
  <circle id="b-button" cx="106.7" cy="223.8" r="7.4" class="st3"/>
  <circle id="t-button" cx="106.7" cy="190.1" r="7.8" class="st3"/>
  <path id="antenna" d="M82.7 73.8c-1.6 0-2.9-1.3-2.9-2.9V20.4c0-1.6 1.3-2.9 2.9-2.9s2.9 1.3 2.9 2.9v50.4c.1 1.7-1.2 3-2.9 3z" class="st4"/>
  <circle id="antenna-dot" cx="82.7" cy="15.1" r="8.9" class="st1"/>
  <path id="head" d="M153.2 142.8H12.3c-1.7 0-3-1.3-3-3V70.5c0-1.7 1.3-3 3-3h140.9c1.7 0 3 1.3 3 3v69.3c0 1.7-1.3 3-3 3z" class="st5"/>
  <circle id="r-eye" cx="120.3" cy="104.3" r="24.5" class="st3"/>
  <circle id="l-eye" cx="48.3" cy="104.4" r="31.5" class="st3"/>
</svg>
