<?xml version="1.0" encoding="utf-8"?>
<!-- Generator: Adobe Illustrator 20.1.0, SVG Export Plug-In . SVG Version: 6.00 Build 0)  -->
<!DOCTYPE svg PUBLIC "-//W3C//DTD SVG 1.1//EN" "http://www.w3.org/Graphics/SVG/1.1/DTD/svg11.dtd">
<svg version="1.1" id="Layer_1" xmlns="http://www.w3.org/2000/svg" xmlns:xlink="http://www.w3.org/1999/xlink" x="0px" y="0px"
	 viewBox="0 0 146.9 136.6" style="enable-background:new 0 0 146.9 136.6;" xml:space="preserve">
<style type="text/css">
	.st0{fill:#1E1E1E;}
	.st1{fill:#FFFFFF;}
</style>
<path class="st0" d="M143.9,61.8H76.7V17.4c3-1.2,5.8-4.5,5.8-8.4c0-4.9-4.1-8.9-9-8.9c-4.9,0-8.9,4-8.9,8.9c0,3.9,2.1,7.2,6.1,8.4
	v44.4H3c-1.7,0-3.3,0.9-3.3,2.5v69.3c0,1.7,1.6,3.2,3.3,3.2h140.9c1.6,0,2.8-1.5,2.8-3.2V64.3C146.7,62.7,145.6,61.8,143.9,61.8z
	 M39,129.7c-17.4,0-31.5-14.1-31.5-31.6c0-17.4,14.1-31.5,31.5-31.5c17.4,0,31.5,14.1,31.5,31.5C70.5,115.6,56.4,129.7,39,129.7z
	 M111,122.5c-13.5,0-24.5-11-24.5-24.5c0-13.5,11-24.5,24.5-24.5c13.5,0,24.5,11,24.5,24.5C135.5,111.6,124.5,122.5,111,122.5z"/>
<path class="st0" d="M70.5,98.2c0,17.4-14.1,31.6-31.5,31.6c-17.4,0-31.5-14.1-31.5-31.6c0-17.4,14.1-31.5,31.5-31.5
	C56.4,66.6,70.5,80.8,70.5,98.2z"/>
<path class="st0" d="M135.5,98.1c0,13.5-11,24.5-24.5,24.5c-13.5,0-24.5-11-24.5-24.5c0-13.5,11-24.5,24.5-24.5
	C124.5,73.6,135.5,84.5,135.5,98.1z"/>
<path class="st1" d="M135.5,98.1c0,13.5-11,24.5-24.5,24.5c-13.5,0-24.5-11-24.5-24.5c0-13.5,11-24.5,24.5-24.5
	C124.5,73.6,135.5,84.5,135.5,98.1z"/>
<path class="st1" d="M70.5,98.2c0,17.4-14.1,31.6-31.5,31.6c-17.4,0-31.5-14.1-31.5-31.6c0-17.4,14.1-31.5,31.5-31.5
	C56.4,66.6,70.5,80.8,70.5,98.2z"/>
<g>
</g>
<g>
</g>
<g>
</g>
<g>
</g>
<g>
</g>
<g>
</g>
<g>
</g>
<g>
</g>
<g>
</g>
<g>
</g>
<g>
</g>
<g>
</g>
<g>
</g>
<g>
</g>
<g>
</g>
</svg>
